<svg xmlns="http://www.w3.org/2000/svg" viewBox="0 0 110.5166 125.5561"><defs><style>.cls-1,.cls-2,.cls-3,.cls-5,.cls-6{fill:none;}.cls-1,.cls-2,.cls-3,.cls-4,.cls-5,.cls-6{stroke:#e6e6e6;}.cls-1,.cls-2{stroke-width:1.5px;}.cls-2{stroke-linecap:square;}.cls-3{stroke-width:1.647px;}.cls-4,.cls-7,.cls-9{fill:#e6e6e6;}.cls-6{stroke-linecap:round;}.cls-7,.cls-9{font-size:11px;}.cls-7{font-family:TimesNewRomanPS-ItalicMT, Times New Roman;font-style:italic;}.cls-8{letter-spacing:-0.0181em;}.cls-9{font-family:TimesNewRomanPSMT, Times New Roman;}</style></defs><title>SPAD_circuit</title><g id="Layer_3" data-name="Layer 3"><line class="cls-1" x1="74.3626" y1="52.6349" x2="45.437" y2="52.6349"/><line class="cls-2" x1="30.4307" y1="74.6756" x2="30.4307" y2="104.6756"/><line class="cls-2" x1="35.4307" y1="74.6756" x2="35.4307" y2="104.6756"/><line class="cls-2" x1="35.4307" y1="74.6756" x2="45.4307" y2="74.6756"/><line class="cls-2" x1="35.4307" y1="104.6756" x2="45.4307" y2="104.6756"/><line class="cls-1" x1="45.4307" y1="38.0279" x2="45.4307" y2="74.6756"/><line class="cls-3" x1="30.6035" y1="120.0356" x2="60.2575" y2="120.0356"/><line class="cls-3" x1="30.6035" y1="124.9736" x2="35.5455" y2="120.0356"/><line class="cls-3" x1="35.5455" y1="124.9736" x2="40.4875" y2="120.0356"/><line class="cls-3" x1="40.4875" y1="124.9736" x2="45.4295" y2="120.0356"/><line class="cls-3" x1="45.4295" y1="124.9736" x2="50.3715" y2="120.0356"/><line class="cls-3" x1="50.3715" y1="124.9736" x2="55.3135" y2="120.0356"/><line class="cls-3" x1="55.3135" y1="124.9736" x2="60.2555" y2="120.0356"/><line class="cls-3" x1="45.4295" y1="120.0356" x2="45.4307" y2="104.6756"/><circle class="cls-4" cx="45.4305" cy="52.6349" r="1.4173"/><line class="cls-1" x1="22.659" y1="5.8105" x2="56.2837" y2="5.8105"/><line class="cls-1" x1="45.437" y1="32.5645" x2="45.437" y2="7.345"/><line class="cls-1" x1="96.4532" y1="52.6349" x2="107.5463" y2="52.6349"/><circle class="cls-5" cx="108.5993" cy="52.6349" r="1.4173"/><line class="cls-1" x1="30.4307" y1="89.3555" x2="13.1868" y2="89.3555"/><circle class="cls-5" cx="12.1646" cy="89.3555" r="1.4173"/><circle class="cls-4" cx="45.4305" cy="5.8105" r="1.4173"/><line class="cls-6" x1="39.2907" y1="38.0279" x2="51.5834" y2="38.0279"/><line class="cls-6" x1="39.2907" y1="38.0279" x2="45.437" y2="32.5645"/><line class="cls-6" x1="51.5834" y1="38.0279" x2="45.437" y2="32.5645"/><line class="cls-6" x1="39.2907" y1="32.5645" x2="51.5834" y2="32.5645"/><line class="cls-6" x1="45.437" y1="32.5645" x2="45.437" y2="30.5157"/><line class="cls-6" x1="45.437" y1="38.0279" x2="45.437" y2="40.2108"/><line class="cls-6" x1="74.5065" y1="37.9874" x2="74.5065" y2="67.2825"/><line class="cls-6" x1="74.5065" y1="37.9874" x2="96.908" y2="52.6349"/><line class="cls-6" x1="74.5065" y1="67.2825" x2="96.908" y2="52.6349"/><line class="cls-6" x1="96.908" y1="52.6349" x2="105.3085" y2="52.6349"/><line class="cls-6" x1="74.5065" y1="52.6349" x2="65.5559" y2="52.6349"/></g><g id="Layer_2" data-name="Layer 2"><text class="cls-7" transform="translate(96.4534 63.2624)">v</text><text class="cls-7" transform="translate(101.3357 64.9255) scale(0.583)">out</text><text class="cls-7" transform="translate(-0.0002 102.1121)">v</text><text class="cls-7" transform="translate(4.8821 103.7752) scale(0.583)">quench</text><text class="cls-7" transform="translate(3.742 9.1417)">V</text><text class="cls-7" transform="translate(10.4612 10.8048) scale(0.583)">H<tspan class="cls-8" x="7.944" y="0">V</tspan></text><text class="cls-9" transform="translate(38.8915 92.7675)">Mq</text></g></svg>